<svg xmlns="http://www.w3.org/2000/svg" width="16" height="16" style="fill-rule:evenodd;clip-rule:evenodd;stroke-linecap:round;stroke-linejoin:round;stroke-miterlimit:1.5;"><path d="M6,3C5.735,3 5.48,3.106 5.293,3.293L1.293,7.293C0.905,7.681 0.905,8.319 1.293,8.707L5.293,12.707C5.48,12.894 5.735,13 6,13L14,13C14.549,13 15,12.549 15,12L15,4C15,3.451 14.549,3 14,3L6,3ZM5,7C5.549,7 6,7.451 6,8C6,8.549 5.549,9 5,9C4.451,9 4,8.549 4,8C4,7.451 4.451,7 5,7Z" style="fill:#302098;fill-rule:nonzero;"/><path d="M9.272,1.245L14.619,1.245L11.519,6.037L13.915,6.078L9.543,10.301L11.763,10.45L3.966,15.31L7.824,10.464L5.32,10.369L8.786,6.051L6.849,5.902L9.272,1.245Z" style="fill:#ffe600;stroke:#000;stroke-width:0.08px;"/></svg>